<?xml version="1.0" encoding="UTF-8"?>
<!DOCTYPE svg PUBLIC "-//W3C//DTD SVG 1.1//EN" "http://www.w3.org/Graphics/SVG/1.1/DTD/svg11.dtd">
<svg xmlns="http://www.w3.org/2000/svg" xmlns:xlink="http://www.w3.org/1999/xlink" version="1.1" width="99px" height="78px" viewBox="-0.5 -0.5 99 78" style="background-color: rgb(255, 255, 255);"><defs/><g><rect x="1" y="1" width="96" height="75" fill="#100f0f" stroke="#ffffff" stroke-width="3" pointer-events="all"/><rect x="9.57" y="9.38" width="78.75" height="16.15" fill="#ffffff" stroke="rgb(0, 0, 0)" stroke-width="4" pointer-events="all"/><rect x="9.57" y="30.92" width="78.75" height="16.15" fill="#ffffff" stroke="rgb(0, 0, 0)" stroke-width="4" pointer-events="all"/><rect x="9.57" y="52.46" width="78.75" height="16.15" fill="#ffffff" stroke="rgb(0, 0, 0)" stroke-width="4" pointer-events="all"/><rect x="12.38" y="13.26" width="3.38" height="8.41" fill="#100f0f" stroke="none" pointer-events="all"/><rect x="19.69" y="13.26" width="3.38" height="8.41" fill="#100f0f" stroke="none" pointer-events="all"/><rect x="27" y="13.26" width="3.38" height="8.41" fill="#100f0f" stroke="none" pointer-events="all"/><rect x="34.32" y="13.26" width="3.38" height="8.41" fill="#100f0f" stroke="none" pointer-events="all"/><rect x="41.07" y="13.26" width="3.38" height="8.41" fill="#100f0f" stroke="none" pointer-events="all"/><rect x="65.82" y="14.77" width="5.63" height="5.38" fill="#100f0f" stroke="none" pointer-events="all"/><rect x="74.82" y="14.77" width="5.63" height="5.38" fill="#100f0f" stroke="none" pointer-events="all"/><rect x="12.38" y="34.79" width="3.38" height="8.41" fill="#100f0f" stroke="none" pointer-events="all"/><rect x="19.69" y="34.79" width="3.38" height="8.41" fill="#100f0f" stroke="none" pointer-events="all"/><rect x="27" y="34.79" width="3.38" height="8.41" fill="#100f0f" stroke="none" pointer-events="all"/><rect x="34.32" y="34.79" width="3.38" height="8.41" fill="#100f0f" stroke="none" pointer-events="all"/><rect x="41.07" y="34.79" width="3.38" height="8.41" fill="#100f0f" stroke="none" pointer-events="all"/><rect x="65.82" y="36.31" width="5.63" height="5.38" fill="#100f0f" stroke="none" pointer-events="all"/><rect x="74.82" y="36.31" width="5.63" height="5.38" fill="#100f0f" stroke="none" pointer-events="all"/><rect x="12.38" y="56.33" width="3.38" height="8.41" fill="#100f0f" stroke="none" pointer-events="all"/><rect x="19.69" y="56.33" width="3.38" height="8.41" fill="#100f0f" stroke="none" pointer-events="all"/><rect x="27" y="56.33" width="3.38" height="8.41" fill="#100f0f" stroke="none" pointer-events="all"/><rect x="34.32" y="56.33" width="3.38" height="8.41" fill="#100f0f" stroke="none" pointer-events="all"/><rect x="41.07" y="56.33" width="3.38" height="8.41" fill="#100f0f" stroke="none" pointer-events="all"/><rect x="65.82" y="57.85" width="5.63" height="5.38" fill="#100f0f" stroke="none" pointer-events="all"/><rect x="74.82" y="57.85" width="5.63" height="5.38" fill="#100f0f" stroke="none" pointer-events="all"/></g></svg>