<?xml version="1.0" encoding="UTF-8"?>
<!DOCTYPE svg PUBLIC "-//W3C//DTD SVG 1.1//EN" "http://www.w3.org/Graphics/SVG/1.1/DTD/svg11.dtd">
<svg xmlns="http://www.w3.org/2000/svg" xmlns:xlink="http://www.w3.org/1999/xlink" version="1.1" width="173px" height="83px" viewBox="-0.5 -0.5 173 83" style="background-color: rgb(255, 255, 255);"><defs/><g><path d="M 11 80 L 11 30" fill="none" stroke="#ffffff" stroke-width="2" stroke-miterlimit="10" pointer-events="stroke"/><path d="M 101 80 L 101 50" fill="none" stroke="#ffffff" stroke-width="2" stroke-miterlimit="10" pointer-events="stroke"/><path d="M 111 80 L 111 0" fill="none" stroke="#ffffff" stroke-width="2" stroke-miterlimit="10" pointer-events="stroke"/><path d="M 121 80 L 121 20" fill="none" stroke="#ffffff" stroke-width="2" stroke-miterlimit="10" pointer-events="stroke"/><path d="M 131 80 L 131 0" fill="none" stroke="#ffffff" stroke-width="2" stroke-miterlimit="10" pointer-events="stroke"/><path d="M 141 80 L 141 40" fill="none" stroke="#ffffff" stroke-width="2" stroke-miterlimit="10" pointer-events="stroke"/><path d="M 151 80 L 151 70" fill="none" stroke="#ffffff" stroke-width="2" stroke-miterlimit="10" pointer-events="stroke"/><path d="M 161 80 L 161 10" fill="none" stroke="#ffffff" stroke-width="2" stroke-miterlimit="10" pointer-events="stroke"/><path d="M 21 80 L 21 40" fill="none" stroke="#ffffff" stroke-width="2" stroke-miterlimit="10" pointer-events="stroke"/><path d="M 31 80 L 31 40" fill="none" stroke="#ffffff" stroke-width="2" stroke-miterlimit="10" pointer-events="stroke"/><path d="M 41 80 L 41 20" fill="none" stroke="#ffffff" stroke-width="2" stroke-miterlimit="10" pointer-events="stroke"/><path d="M 51 80 L 51 10" fill="none" stroke="#ffffff" stroke-width="2" stroke-miterlimit="10" pointer-events="stroke"/><path d="M 61 80 L 61 40" fill="none" stroke="#ffffff" stroke-width="2" stroke-miterlimit="10" pointer-events="stroke"/><path d="M 71 80 L 71 30" fill="none" stroke="#ffffff" stroke-width="2" stroke-miterlimit="10" pointer-events="stroke"/><path d="M 81 80 L 81 20" fill="none" stroke="#ffffff" stroke-width="2" stroke-miterlimit="10" pointer-events="stroke"/><path d="M 91 80 L 91 10" fill="none" stroke="#ffffff" stroke-width="2" stroke-miterlimit="10" pointer-events="stroke"/><path d="M 1 80 L 171 80" fill="none" stroke="#ffffff" stroke-width="2" stroke-miterlimit="10" pointer-events="stroke"/></g></svg>